<?xml version="1.0" encoding="UTF-8" standalone="no"?>
<svg
   xmlns:dc="http://purl.org/dc/elements/1.1/"
   xmlns:cc="http://creativecommons.org/ns#"
   xmlns:rdf="http://www.w3.org/1999/02/22-rdf-syntax-ns#"
   xmlns:svg="http://www.w3.org/2000/svg"
   xmlns="http://www.w3.org/2000/svg"
   xmlns:sodipodi="http://sodipodi.sourceforge.net/DTD/sodipodi-0.dtd"
   xmlns:inkscape="http://www.inkscape.org/namespaces/inkscape"
   viewBox="0 0 1982.2212 1920"
   version="1.1"
   id="svg895"
   sodipodi:docname="25vertpims-white.svg"
   width="1982.2212"
   height="1920"
   inkscape:version="1.0.2 (e86c8708, 2021-01-15)">
  <metadata
     id="metadata899">
    <rdf:RDF>
      <cc:Work
         rdf:about="">
        <dc:format>image/svg+xml</dc:format>
        <dc:type
           rdf:resource="http://purl.org/dc/dcmitype/StillImage" />
        <dc:title></dc:title>
      </cc:Work>
    </rdf:RDF>
  </metadata>
  <sodipodi:namedview
     pagecolor="#ffffff"
     bordercolor="#666666"
     borderopacity="1"
     objecttolerance="10"
     gridtolerance="10"
     guidetolerance="10"
     inkscape:pageopacity="0"
     inkscape:pageshadow="2"
     inkscape:window-width="1484"
     inkscape:window-height="759"
     id="namedview897"
     showgrid="false"
     inkscape:pagecheckerboard="true"
     inkscape:zoom="0.59057751"
     inkscape:cx="982.42993"
     inkscape:cy="976.42999"
     inkscape:window-x="0"
     inkscape:window-y="25"
     inkscape:window-maximized="0"
     inkscape:current-layer="Layer_1-2" />
  <defs
     id="defs835">
    <style
       id="style833">.cls-1{fill:#005cb9;}.cls-2{fill:#fff;}.cls-3{fill:#9d9d9c;}</style>
  </defs>
  <g
     id="Layer_1-2"
     data-name="Layer 1"
     transform="translate(496.46493,500.51499)">
    <path
       class="cls-2"
       d="m -171.1236,1085.9289 c 0,111.6561 -85.75014,155.2594 -147.71268,155.2594 a 156.98058,156.98058 0 0 1 -67.39087,-13.6371 v 136.8119 c 0,38.7927 9.5327,46.9573 65.36076,46.9573 2.69211,0 2.69211,8.1646 0,8.1646 -24.53787,0 -55.16607,-1.324 -88.53051,-1.324 -24.49374,0 -47.66349,1.324 -64.65464,1.324 -2.73624,0 -2.73624,-8.1646 0,-8.1646 34.68843,0 41.52902,-8.1646 41.52902,-46.9573 v -318.6393 c 0,-30.6282 -6.13447,-44.1328 -23.83174,-44.1328 a 89.677968,89.677968 0 0 0 -34.73256,10.1947 c -3.39823,1.3681 -7.50259,-6.1345 -4.10436,-7.5026 l 82.26365,-39.41067 a 14.299046,14.299046 0 0 1 4.10436,-1.32399 c 10.19469,0 20.38938,17.65314 22.46362,51.06176 37.42467,-37.46884 72.81922,-53.798 109.58189,-53.798 55.96046,-0.1324 105.65406,45.4568 105.65406,125.1167 z m -51.72371,21.1396 c 0,-76.9677 -38.79278,-116.42248 -87.16239,-116.42248 -30.62821,0 -53.75383,14.96108 -76.21745,36.76268 v 158.6135 c 21.09551,23.8317 44.92725,40.1609 85.75014,40.1609 45.63338,0 77.6297,-40.6464 77.6297,-119.1146 z"
       id="path839"
       style="stroke-width:4.41329" />
    <path
       class="cls-2"
       d="m -79.194854,1224.153 c 32.658316,0 40.822894,-8.8266 40.822894,-46.9574 v -125.2932 c 0,-31.9963 -5.428341,-45.6334 -21.757499,-45.6334 a 71.406965,71.406965 0 0 0 -29.304218,8.8266 c -3.39823,1.3681 -6.79646,-6.7964 -3.39823,-8.1646 l 92.67900289,-42.8971 2.73623721,-0.66199 a 7.8997817,7.8997817 0 0 1 6.7964602,6.79646 c 0,8.16458 -1.3681186,36.05653 -1.3681186,80.32183 v 126.6613 c 0,38.0866 7.5025863,46.9573 40.8670273,46.9573 2.736237,0 2.736237,8.1646 0,8.1646 -17.035284,0 -39.4989087,-1.3681 -63.992645,-1.3681 -24.493737,0 -47.001494,1.3681 -63.992645,1.3681 -2.824503,0.044 -2.824503,-8.1204 -0.08827,-8.1204 z m 25.861855,-369.61272 c 0,-19.72739 12.930928,-31.99632 34.026434,-31.99632 21.0955067,0 31.996323,12.26893 31.996323,31.99632 0,21.13964 -11.5628092,33.36444 -31.996323,33.36444 -20.433513,0 -34.026434,-12.31307 -34.026434,-33.36444 z"
       id="path841"
       style="stroke-width:4.41329" />
    <path
       class="cls-2"
       d="m 614.52955,1232.3175 c -16.99115,0 -40.1609,-1.3681 -64.65464,-1.3681 -24.49374,0 -47.00149,1.3681 -63.99264,1.3681 -2.07425,0 -2.07425,-8.1645 0,-8.1645 33.36444,0 41.52902,-8.8266 41.52902,-46.9574 v -104.8597 c 0,-52.4298 -18.40341,-76.92354 -56.5342,-76.92354 -25.86185,0 -53.75382,14.29904 -74.18733,38.13084 v 143.6524 c 0,38.0867 7.50259,46.9574 40.82289,46.9574 2.73624,0 2.73624,8.1645 0,8.1645 -16.99115,0 -39.45477,-1.3681 -63.99264,-1.3681 -24.53787,0 -46.95736,1.3681 -63.99265,1.3681 -2.73623,0 -2.73623,-8.1645 0,-8.1645 32.70245,0 40.86703,-8.8266 40.86703,-46.9574 v -104.8597 c 0,-52.4298 -17.65314,-76.92354 -55.82807,-76.92354 -25.86185,0 -52.42983,13.59294 -72.86334,36.05654 v 145.6384 c 0,38.0867 7.50258,46.9574 40.86702,46.9574 2.69211,0 2.69211,8.1646 0,8.1646 -17.03528,0 -39.49891,-1.3681 -63.99264,-1.3681 -24.49374,0 -47.66349,1.3681 -63.99265,1.3681 -2.73623,0 -2.73623,-8.1646 0,-8.1646 32.65832,0 40.1609,-8.8266 40.1609,-46.9574 v -132.7957 c 0,-29.2601 -6.13446,-42.191 -22.46362,-42.191 -8.82657,0 -21.13964,3.3982 -36.10068,9.5327 -3.39823,2.0301 -6.79646,-6.1345 -3.39823,-7.5026 l 84.42616,-40.16093 a 8.8265717,8.8265717 0 0 1 4.06022,-0.66199 c 7.50259,0 19.77152,19.72738 20.43352,55.12192 31.33433,-37.42465 63.99264,-56.49004 100.09332,-56.49004 40.82289,0 66.72888,20.43351 73.52534,59.88824 32.65832,-39.45473 66.19929,-59.88824 103.49155,-59.88824 46.95737,0 75.02586,27.22997 75.02586,83.85244 v 131.4276 c 0,38.0867 6.79646,46.9574 40.8229,46.9574 2.60384,-0.044 2.60384,8.1204 -0.1324,8.1204 z"
       id="path843"
       style="stroke-width:4.41329" />
    <path
       class="cls-2"
       d="m 793.57656,1074.366 c 34.07056,18.4034 70.12711,36.1007 70.12711,81.028 0,43.5591 -34.02644,84.4261 -98.01908,84.4261 a 117.56994,117.56994 0 0 1 -66.72888,-19.7715 10.547753,10.547753 0 0 1 -4.14849,-8.0322 l -1.36812,-57.8581 c 0,-2.7363 7.45845,-3.3983 8.16458,-0.662 16.32916,45.5892 47.66349,73.5253 83.85243,73.5253 25.86185,0 41.52902,-13.637 40.1609,-40.867 -0.66199,-38.1308 -31.2902,-53.798 -60.59441,-68.759 -33.32031,-16.3292 -67.39088,-32.6583 -67.39088,-78.9537 0,-54.50408 47.66349,-76.9677 94.66498,-76.9677 a 129.52994,129.52994 0 0 1 51.72371,10.23882 c 5.42834,2.03011 6.13447,4.76635 6.13447,7.45845 0,16.37329 -1.36812,32.70243 -1.36812,53.79793 0,2.0301 -8.16458,2.0301 -8.16458,0 0,-28.5981 -37.46879,-57.85815 -72.15722,-57.85815 -19.0654,0 -34.07057,8.82657 -34.07057,33.36445 0.1324,33.232 29.26009,50.2232 59.18217,65.8903 z"
       id="path845"
       style="stroke-width:4.41329" />
    <path
       class="cls-3"
       d="m 873.32463,341.40753 90.1193,-158.52522 -23.92001,-6.53167 C 895.038,240.43155 854.83296,251.3765 799.44623,251.3765 l -119.42352,4.41329 c 98.81347,-53.22423 326.84799,-162.894382 326.84799,-300.809565 0,-60.815075 -43.42677,-102.079305 -115.09853,-102.079305 -73.83428,0 -156.36272,36.93921 -216.25101,121.630161 l 17.38835,27.1417081 c 57.37271,-66.1992881 109.67015,-83.8524311 148.77186,-83.8524311 43.42673,0 59.71176,21.713366 59.71176,49.958396 0,107.507643 -224.76865,248.688656 -348.64958,334.482936 l 3.26583,27.14171 h 294.2779 l -2.16251,11.91587 z"
       id="path847"
       style="stroke-width:4.41329" />
    <path
       class="cls-3"
       d="m 1403.2279,-40.827154 82.5284,-132.398576 h -24.9792 c -30.4075,30.40754 -67.3467,35.83588 -125.9552,35.83588 h -166.1602 l -181.3419,282.4503 14.1225,21.71336 c 146.5652,-30.58407 200.8928,35.65935 200.8928,109.62602 0,102.0793 -100.976,225.87197 -187.8736,225.87197 -70.61256,0 -55.38672,-86.85346 -110.77346,-86.85346 -30.40754,0 -46.69257,15.1817 -46.69257,45.58924 0,53.22423 73.83428,75.02586 136.81186,75.02586 157.42187,0 326.84797,-130.32433 326.84797,-285.58373 0,-99.91679 -70.6126,-183.548556 -263.8704,-158.569358 l 86.8535,-132.398576 z"
       id="path849"
       style="stroke-width:4.41329" />
    <path
       class="cls-2"
       d="m 769.83308,475.21836 a 639.66165,639.66165 0 0 1 -1070.57488,0 h 215.235948 a 474.33996,474.33996 0 0 0 640.544312,0 z"
       id="path851"
       style="stroke-width:4.41329" />
    <circle
       class="cls-2"
       cx="640.70032"
       cy="-261.27072"
       r="31.731525"
       id="circle853"
       style="stroke-width:4.41329" />
    <circle
       class="cls-2"
       cx="-299.50604"
       cy="281.43103"
       r="31.731525"
       id="circle855"
       style="stroke-width:4.41329" />
    <circle
       class="cls-2"
       cx="539.01831"
       cy="-347.24158"
       r="38.74865"
       id="circle857"
       style="stroke-width:4.41329" />
    <circle
       class="cls-2"
       cx="403.83932"
       cy="-412.38171"
       r="47.178024"
       id="circle859"
       style="stroke-width:4.41329" />
    <circle
       class="cls-2"
       cx="236.13445"
       cy="-440.40604"
       r="60.108952"
       id="circle861"
       style="stroke-width:4.41329" />
    <circle
       class="cls-2"
       cx="46.186592"
       cy="-410.92526"
       r="70.215378"
       id="circle863"
       style="stroke-width:4.41329" />
    <circle
       class="cls-2"
       cx="-324.70599"
       cy="148.23798"
       r="38.74865"
       id="circle865"
       style="stroke-width:4.41329" />
    <circle
       class="cls-2"
       cx="-313.9816"
       cy="0.56946766"
       r="47.178024"
       id="circle867"
       style="stroke-width:4.41329" />
    <circle
       class="cls-2"
       cx="-253.29892"
       cy="-159.58871"
       r="60.108952"
       id="circle869"
       style="stroke-width:4.41329" />
    <circle
       class="cls-2"
       cx="-129.6387"
       cy="-308.40472"
       r="70.215378"
       id="circle871"
       style="stroke-width:4.41329" />
    <path
       class="cls-2"
       d="m 8.2764719,14.64785 c 0,0 -27.8478339,6.1786 -37.3805309,8.03218 -81.822321,13.769452 -71.539361,60.770946 -45.412712,126.44064 8.826572,22.06643 -20.301115,26.47971 -37.689459,27.31824 A 345.78095,345.78095 0 0 0 -39.033952,335.3172 C 29.371978,112.358 8.2764719,14.64785 8.2764719,14.64785 Z M 269.10167,-41.356748 108.67872,-6.2711254 C 126.06707,125.77439 135.59977,314.08929 127.74412,447.81186 A 348.64958,348.64958 0 0 0 390.95249,423.75945 C 306.70286,236.68026 269.10167,-41.356748 269.10167,-41.356748 Z M 230.13235,-232.18723 A 347.28146,347.28146 0 0 0 -55.451376,-82.885768 244.7167,244.7167 0 0 1 -1.0796941,-97.714408 C 94.688609,-116.6474 157.48967,-68.895652 378.46289,-114.26423 a 360.12413,360.12413 0 0 0 84.20549,-28.59809 345.86921,345.86921 0 0 0 -232.53603,-89.41317 z m 279.53753,141.004485 -152.87622,32.172854 c 9.22376,71.274566 90.60475,219.605101 185.0932,328.701531 A 348.11999,348.11999 0 0 0 509.66988,-91.050347 Z"
       id="path873"
       style="stroke-width:4.41329" />
    <path
       class="cls-1"
       d="m -79.062455,554.43684 a 26.082519,26.082519 0 0 1 -2.030112,3.83956 52.95943,52.95943 0 0 1 -3.663027,5.56074 9.047236,9.047236 0 0 1 -1.103321,1.19159 h -0.397196 l -2.250776,-1.98598 -0.353063,-0.3972 a 20.963108,20.963108 0 0 0 1.632916,-8.12044 9.8857603,9.8857603 0 0 0 -3.883691,-7.19366 9.2237674,9.2237674 0 0 0 -6.399265,-2.20664 6.7523273,6.7523273 0 0 0 -5.16354,2.73624 7.3701874,7.3701874 0 0 0 -1.23572,5.47247 23.875876,23.875876 0 0 0 4.987009,9.79749 44.132858,44.132858 0 0 1 3.39823,5.64901 16.858752,16.858752 0 0 1 2.118377,6.1786 15.578899,15.578899 0 0 1 -0.30893,6.0462 16.638088,16.638088 0 0 1 -2.868636,5.29595 21.492702,21.492702 0 0 1 -5.86967,5.20767 12.489599,12.489599 0 0 1 -4.41329,1.45639 25.685324,25.685324 0 0 1 -4.85461,0 19.109528,19.109528 0 0 1 -5.7814,-1.36812 30.893001,30.893001 0 0 1 -6.17861,-3.79543 36.497874,36.497874 0 0 1 -4.98701,-4.89874 l -3.0893,-4.19263 a 8.8265717,8.8265717 0 0 1 -1.41225,-2.4273 1.54465,1.54465 0 0 1 0,-0.88266 l 0.2648,-0.35306 q 0.35306,-0.30893 3.30996,-4.63395 l 2.29491,-3.0893 0.92679,-1.23572 3.13343,2.29491 c -0.83852,3.26583 -1.27985,5.25181 -1.36812,6.00206 a 13.239858,13.239858 0 0 0 0,4.41329 12.401333,12.401333 0 0 0 1.63292,3.92782 14.122515,14.122515 0 0 0 3.26583,3.44237 14.343179,14.343179 0 0 0 4.41329,2.25077 8.8265717,8.8265717 0 0 0 5.34007,0 7.8997817,7.8997817 0 0 0 4.41329,-2.73623 7.7673831,7.7673831 0 0 0 1.19159,-6.26687 33.408574,33.408574 0 0 0 -4.81048,-9.1355 46.074704,46.074704 0 0 1 -5.47248,-10.32709 14.607976,14.607976 0 0 1 -0.22066,-7.32606 16.108493,16.108493 0 0 1 2.8245,-6.48753 15.181703,15.181703 0 0 1 10.59189,-6.00206 19.462591,19.462591 0 0 1 13.901846,4.85461 36.188944,36.188944 0 0 1 4.413286,4.19262 41.175957,41.175957 0 0 1 4.060223,5.25181 z"
       id="path875"
       style="stroke-width:4.41329" />
    <path
       class="cls-1"
       d="m -68.691233,624.74049 1.500517,-2.60384 2.692104,0.75026 a 18.359269,18.359269 0 0 0 4.148489,0.83852 7.1495231,7.1495231 0 0 0 2.427307,-2.73624 l 2.427307,-4.41328 4.810482,-8.20872 1.059189,-1.94184 4.413285,-7.19366 2.692105,-4.85461 1.23572,-1.89771 2.16251,-4.19263 0.794391,-1.58878 a 8.8265717,8.8265717 0 0 0 0.441329,-1.32398 16.37329,16.37329 0 0 0 -4.413286,-3.6189 l -1.191587,-0.83852 1.765314,-3.17757 10.062292,6.311 2.339041,1.45638 c 1.412252,0.7944 3.751293,2.03012 6.972992,3.6189 l 3.442363,1.67705 c -0.220664,0.48546 -0.441329,0.88265 -0.61786,1.19158 a 17.653143,17.653143 0 0 1 -1.015056,1.54465 q -1.721181,-0.35306 -3.839558,-0.92679 a 22.066429,22.066429 0 0 0 -3.530629,-0.83852 14.122515,14.122515 0 0 0 -1.809447,2.60384 c -0.573727,1.01505 -1.015056,1.85358 -1.323986,2.5597 -2.383174,4.01609 -4.413286,7.14953 -5.472475,9.31204 l -5.428341,9.57683 -2.956902,4.72221 -4.01609,7.28193 -0.882657,1.32398 a 2.6038387,2.6038387 0 0 0 -0.264797,0.92679 38.307321,38.307321 0 0 0 3.618894,2.9569 l 2.030112,1.54465 c -0.353063,0.75026 -0.61786,1.41225 -0.882657,1.85358 -0.264797,0.44133 -0.397196,0.70613 -0.750259,1.23572 l -0.750259,-0.39719 -1.368118,-0.70613 a 4.060223,4.060223 0 0 1 -0.882657,-0.61786 l -4.413286,-3.26583 -6.355132,-3.70716 a 58.21124,58.21124 0 0 0 -5.737271,-2.8245 z"
       id="path877"
       style="stroke-width:4.41329" />
    <path
       class="cls-1"
       d="m 12.071898,611.36823 0.882657,-2.78037 3.309964,1.23572 1.147455,0.39719 3.265831,1.10333 2.692104,1.10332 0.838525,0.35306 2.47144,0.83852 2.427307,0.83853 1.191587,0.48546 c 2.603839,5.11941 4.678083,9.48857 6.222733,13.23986 1.54465,3.75129 7.281922,16.19676 17.211815,37.86599 l 0.353063,-0.97092 1.54465,-4.41329 c 0.92679,-2.6921 1.632916,-4.81048 2.074244,-6.39926 0.441329,-1.58879 1.059189,-3.4865 1.85358,-5.64901 0.794392,-2.16251 1.412252,-4.10435 1.897713,-5.9138 0.970923,-3.53063 1.54465,-5.51661 1.765315,-6.0462 a 6.7081945,6.7081945 0 0 0 0.61786,-3.26583 7.6791174,7.6791174 0 0 0 -3.265832,-2.69211 12.577865,12.577865 0 0 1 -2.868636,-2.11838 l 0.92679,-2.25077 h 1.015056 l 7.767383,2.64797 8.826572,3.00103 1.677049,0.57373 -0.92679,2.55971 a 8.5176417,8.5176417 0 0 1 -2.118378,0 20.874842,20.874842 0 0 0 -3.177565,-0.2648 12.268935,12.268935 0 0 0 -2.647972,0.57373 2.4273072,2.4273072 0 0 0 -0.882657,1.27985 c 0,0 -0.264797,0.70613 -0.529594,1.67705 l -1.191588,3.26583 c -1.412251,3.79543 -2.427307,6.79646 -3.045167,9.04724 -0.220664,0.70612 -0.485461,1.54465 -0.794391,2.4273 l -4.722216,13.81359 c -0.30893,0.97092 -0.573727,1.63291 -0.706126,2.03011 l -1.809447,4.81048 -0.61786,2.07425 -0.92679,2.03011 q -0.485462,1.67705 -0.529594,1.98598 l -0.794392,2.07424 -4.413286,-1.54465 -2.824503,-6.53166 -5.913803,-12.93093 -4.148488,-9.1355 -3.001035,-6.79646 c -1.985978,-4.41329 -3.839559,-8.12045 -5.516607,-11.47455 l -4.413286,-8.07631 -5.119412,14.60798 c -0.30893,0.88265 -0.61786,1.80944 -0.970922,2.73623 l -1.103322,2.73624 -1.677049,5.20768 c -0.706125,2.11838 -1.456384,4.41328 -2.16251,7.06126 a 6.1344673,6.1344673 0 0 0 -0.353062,1.50051 c 0,0.30893 0,0.75026 0,1.36812 a 31.510861,31.510861 0 0 0 6.310998,3.30997 l 0.92679,0.66199 -1.015055,3.17757 -1.54465,-0.5296 c -0.838525,-0.30893 -3.398231,-1.45638 -7.634985,-3.53063 -4.2367544,-2.07424 -6.92885879,-2.42731 -8.34111026,-2.86863 l -2.33904154,-0.70613 a 6.3109988,6.3109988 0 0 1 -1.23572,-0.61786 16.682221,16.682221 0 0 1 0.5295943,-1.58878 c 0,-0.30893 0.30893,-0.75026 0.5737272,-1.41225 a 18.050339,18.050339 0 0 1 1.85358,0.48546 l 1.50051721,0.66199 a 8.8265717,8.8265717 0 0 0 4.06022299,0.97092 c 0.5295943,0 1.0591886,-0.97092 1.6770486,-2.38317 1.7211815,-4.06022 2.7362372,-6.53166 3.0893001,-7.45845 l 0.7943914,-2.11838 4.854614,-12.622 2.868636,-7.94391 a 26.832778,26.832778 0 0 0 1.765315,-6.48753 4.0160901,4.0160901 0 0 0 -0.30893,-1.89772 10.062292,10.062292 0 0 0 -2.250776,-3.2217 28.377428,28.377428 0 0 0 -4.94288,-3.17756 z"
       id="path879"
       style="stroke-width:4.41329" />
    <path
       class="cls-1"
       d="m 160.79963,651.13193 c 0,0.88266 0.48546,3.3541 0.88266,7.37019 a 22.993219,22.993219 0 0 1 -0.22067,5.73727 l -3.70716,-0.70612 a 27.891967,27.891967 0 0 0 -6.66406,-9.44443 18.668199,18.668199 0 0 0 -8.82657,-4.10436 12.489599,12.489599 0 0 0 -11.12148,3.0893 30.098609,30.098609 0 0 0 -8.82657,17.65314 37.645328,37.645328 0 0 0 -0.88266,10.0623 26.788645,26.788645 0 0 0 2.29491,8.51764 12.401333,12.401333 0 0 0 3.88369,4.41328 17.123549,17.123549 0 0 0 7.32606,3.2217 15.843696,15.843696 0 0 0 9.22376,-1.23572 31.863924,31.863924 0 0 0 9.5327,-6.88472 26.921044,26.921044 0 0 1 4.06022,0.39719 c -0.30893,1.01506 -0.70612,2.03011 -1.14745,3.13343 0,0.3972 -0.79439,2.07425 -1.85358,4.98702 l -0.61786,1.14745 -0.88266,1.80945 a 17.079416,17.079416 0 0 1 -7.54672,1.63291 59.182163,59.182163 0 0 1 -11.29801,-1.01505 46.207103,46.207103 0 0 1 -9.35616,-2.69211 22.066429,22.066429 0 0 1 -7.10539,-4.41328 27.318239,27.318239 0 0 1 -6.1786,-7.67912 23.787611,23.787611 0 0 1 -2.60384,-8.20871 29.215952,29.215952 0 0 1 0.35306,-9.31203 27.494771,27.494771 0 0 1 11.65107,-18.71234 28.465694,28.465694 0 0 1 22.06643,-4.41328 84.867487,84.867487 0 0 1 9.44443,2.25077 62.271463,62.271463 0 0 1 8.12045,3.39823 z"
       id="path881"
       style="stroke-width:4.41329" />
    <path
       class="cls-1"
       d="m 200.5192,654.53016 q 2.38318,0 4.10436,0.3972 a 62.006666,62.006666 0 0 0 7.59085,0.52959 h 7.72325 c 6.1786,-0.22066 11.78347,-0.30893 16.77049,-0.26479 h 7.50258 a 61.432939,61.432939 0 0 1 7.50259,0.66199 3.3540972,3.3540972 0 0 1 0.70613,2.25078 v 10.28295 a 5.1194116,5.1194116 0 0 1 0,0.75026 h -1.72119 -1.41225 c -0.22066,-0.52959 -0.57373,-1.36812 -0.97092,-2.42731 l -1.63292,-3.00103 a 18.800598,18.800598 0 0 0 -2.64797,-3.83956 12.401333,12.401333 0 0 0 -2.64797,-0.35306 l -2.51557,-0.22067 c -2.55971,0 -5.34008,-0.39719 -8.29698,-0.39719 -2.9569,0 -6.4434,0 -9.09137,0 0,0.70612 0,3.39823 0,8.20871 v 12.2248 h 1.80945 c 4.94288,0 8.51764,0 10.63602,-0.22066 a 11.518676,11.518676 0 0 0 3.92782,-0.75026 4.678083,4.678083 0 0 0 1.32399,-1.80945 56.754856,56.754856 0 0 0 1.50051,-6.09033 h 2.95691 c 0,2.47144 0,4.41328 0,5.649 0,2.86864 0,4.76635 0,5.60488 0,0.83852 0,1.45638 0,1.94184 0,0.48546 0,1.94185 0,3.6189 0,1.67704 0,2.86863 0,3.66302 v 0.92679 h -2.95691 c 0,-0.44133 -0.30893,-1.36812 -0.61786,-2.73623 a 16.770486,16.770486 0 0 0 -1.45638,-4.85462 3.133433,3.133433 0 0 0 -1.63292,-1.14745 34.070567,34.070567 0 0 0 -6.1786,-0.30893 c -4.19262,0 -7.37018,0 -9.48856,0.22066 v 1.41225 c 0,3.30997 0,6.0462 0,8.25285 v 8.82657 a 2.1625101,2.1625101 0 0 0 1.10332,2.20664 35.306287,35.306287 0 0 0 10.41536,0.97092 51.811976,51.811976 0 0 0 9.84162,-0.79439 9.4885646,9.4885646 0 0 0 4.89875,-2.78037 20.301115,20.301115 0 0 0 4.76635,-7.76738 20.080451,20.080451 0 0 1 2.11838,0 h 1.41225 c 0,0.70613 0,1.27985 -0.22067,1.76531 l -0.26479,1.23572 -1.89772,8.12045 -0.79439,4.72222 h -4.41328 q -2.29491,0 -12.44547,-0.5296 c -4.72222,0 -10.45949,-0.39719 -17.12355,-0.44133 -3.3541,0 -7.45845,0 -12.26893,0.30893 h -1.50052 -5.03115 v -2.86863 a 22.066429,22.066429 0 0 1 3.17757,-0.44133 20.698311,20.698311 0 0 0 6.00207,-1.27985 8.4735088,8.4735088 0 0 0 0.48546,-3.04517 c 0,-0.44133 0,-1.27985 0,-2.38318 v -1.32398 -15.66717 -4.67808 -6.66406 -4.72222 l -0.22066,-5.11941 c 0,0 0,-0.39719 0,-0.83852 a 2.0301115,2.0301115 0 0 0 -1.23572,-0.57373 l -1.23572,-0.2648 a 29.215952,29.215952 0 0 0 -4.41329,-0.61786 h -1.85358 z"
       id="path883"
       style="stroke-width:4.41329" />
    <path
       class="cls-1"
       d="m 361.20694,638.50994 2.73624,-0.75026 1.27985,-0.30893 2.55971,-0.57373 c 0.35306,0.83853 0.52959,1.45639 0.66199,1.85358 0.1324,0.3972 0,0.5296 0.2648,1.23572 0.26479,0.70613 0.39719,1.85358 0.97092,4.41329 l 1.45638,6.09033 0.97093,3.83956 6.48753,27.31824 0.52959,2.29491 a 2.3831744,2.3831744 0 0 0 1.01506,1.58878 6.7081945,6.7081945 0 0 0 3.26583,0 l 4.01609,-0.30893 a 3.0893001,3.0893001 0 0 1 0.2648,0.75026 q 0,0.44133 0.39719,1.98598 l -1.72118,0.39719 c -1.19159,0.30893 -2.91277,0.662 -5.20768,1.14746 l -2.86863,0.57373 c -0.662,0 -3.00104,0.79439 -7.10539,1.98597 l -1.10332,0.30893 h -0.70613 l -1.19159,0.22067 -1.10332,0.35306 -2.03011,0.3972 -1.63292,0.52959 c 0,-0.57373 -0.30893,-1.01505 -0.39719,-1.36812 a 8.4735088,8.4735088 0 0 1 -0.2648,-1.32398 c 1.01506,-0.57373 2.16251,-1.19159 3.53063,-1.85358 a 9.0913688,9.0913688 0 0 0 3.30996,-2.07425 2.0742443,2.0742443 0 0 0 0.30893,-1.72118 l -0.75025,-2.73624 -0.57373,-3.00103 -1.54465,-6.13447 -0.44133,-1.58878 -0.52959,-2.42731 a 17.255948,17.255948 0 0 0 -0.35307,-1.94184 c 0,-0.35307 -0.44133,-1.45639 -0.97092,-3.2217 l -0.3972,-2.38318 -0.92679,-3.04516 -0.26479,-1.23572 v -1.01506 l -0.79439,-2.73624 v -1.27985 l -0.5296,-2.25078 c -0.22066,-0.92679 -0.52959,-2.03011 -0.88266,-3.35409 a 65.272498,65.272498 0 0 1 -5.47247,5.9138 c 0,0 -1.27985,1.05919 -3.2217,2.55971 a 18.138605,18.138605 0 0 1 -2.38317,-2.51558 60.815079,60.815079 0 0 0 5.03114,-4.72221 52.95943,52.95943 0 0 0 4.41329,-5.78141 30.893001,30.893001 0 0 0 1.89771,-4.10435 z"
       id="path885"
       style="stroke-width:4.41329" />
    <path
       class="cls-1"
       d="m 435.52667,674.30169 a 2.5597058,2.5597058 0 0 1 -1.19158,-1.19159 1.5887829,1.5887829 0 0 1 0,-1.19159 11.077347,11.077347 0 0 1 1.85358,-1.94184 30.142742,30.142742 0 0 0 5.47247,-6.4434 22.287094,22.287094 0 0 0 2.82451,-7.23779 24.670268,24.670268 0 0 0 0,-7.85565 36.762671,36.762671 0 0 0 -1.32399,-6.0462 c 0,-0.48546 -0.48546,-1.63292 -0.97092,-3.4865 a 46.516033,46.516033 0 0 0 -1.67705,-4.89874 28.377428,28.377428 0 0 0 -7.72325,-12.57787 5.7814045,5.7814045 0 0 0 -5.56074,-1.01505 5.5166073,5.5166073 0 0 0 -3.30997,4.06022 16.461556,16.461556 0 0 0 1.23572,10.10642 55.7398,55.7398 0 0 0 3.17757,6.7082 10.680152,10.680152 0 0 0 2.91277,3.35409 4.4132858,4.4132858 0 0 0 1.94184,0.97093 7.4584531,7.4584531 0 0 0 3.30997,-0.44133 7.5908517,7.5908517 0 0 0 1.89771,-1.10332 l 0.5296,-0.35307 a 1.23572,1.23572 0 0 1 1.01505,0 1.9418458,1.9418458 0 0 1 0.92679,1.14746 1.9418458,1.9418458 0 0 1 -0.44133,2.33904 15.976095,15.976095 0 0 1 -5.03114,3.04517 11.298012,11.298012 0 0 1 -2.33905,0.75026 22.066429,22.066429 0 0 1 -5.29594,-0.22067 14.21078,14.21078 0 0 1 -4.72221,-1.94184 12.489599,12.489599 0 0 1 -3.30997,-3.17757 24.537869,24.537869 0 0 1 -3.00103,-5.47247 19.506723,19.506723 0 0 1 -1.27986,-9.35617 14.961039,14.961039 0 0 1 3.39823,-8.12045 17.300081,17.300081 0 0 1 6.973,-5.03114 16.902885,16.902885 0 0 1 14.43144,0.79439 25.685324,25.685324 0 0 1 11.29801,14.34318 36.188944,36.188944 0 0 1 2.33904,11.91587 39.36651,39.36651 0 0 1 -0.66199,6.61993 30.495805,30.495805 0 0 1 -9.79749,17.96207 25.288128,25.288128 0 0 1 -6.53167,4.41329 z"
       id="path887"
       style="stroke-width:4.41329" />
    <path
       class="cls-1"
       d="m 508.43416,641.59924 a 2.1625101,2.1625101 0 0 1 -1.32399,-1.01506 1.4563843,1.4563843 0 0 1 -0.22066,-1.19159 11.253879,11.253879 0 0 1 1.58878,-2.16251 30.407539,30.407539 0 0 0 4.41329,-7.14952 21.007241,21.007241 0 0 0 1.80944,-7.54672 23.302149,23.302149 0 0 0 -0.92679,-7.76738 37.027468,37.027468 0 0 0 -2.11837,-5.82554 c 0,-0.44133 -0.70613,-1.58878 -1.45639,-3.3541 -0.75026,-1.76531 -1.32398,-2.8245 -2.29491,-4.41328 a 28.907022,28.907022 0 0 0 -9.35616,-11.43041 5.8255373,5.8255373 0 0 0 -5.69314,0 5.4724745,5.4724745 0 0 0 -2.73624,4.41328 16.285025,16.285025 0 0 0 2.64797,9.84163 52.297437,52.297437 0 0 0 4.06023,6.22273 10.106425,10.106425 0 0 0 3.35409,2.91277 3.8395587,3.8395587 0 0 0 2.03011,0.70613 7.0171245,7.0171245 0 0 0 3.2217,-0.88266 7.1053902,7.1053902 0 0 0 1.72118,-1.36812 l 0.48547,-0.39719 a 1.23572,1.23572 0 0 1 1.05918,0 1.8977129,1.8977129 0 0 1 1.01506,1.01505 1.8535801,1.8535801 0 0 1 0,2.38318 15.799563,15.799563 0 0 1 -4.41329,3.70716 9.3120331,9.3120331 0 0 1 -2.20664,1.05919 23.125618,23.125618 0 0 1 -5.29594,0.52959 15.490633,15.490633 0 0 1 -4.94288,-1.27985 12.092403,12.092403 0 0 1 -3.70716,-2.69211 25.905988,25.905988 0 0 1 -3.7513,-4.98701 19.683255,19.683255 0 0 1 -2.51557,-9.09137 15.005172,15.005172 0 0 1 2.20664,-8.51764 17.653143,17.653143 0 0 1 6.22274,-5.95794 16.902885,16.902885 0 0 1 14.43144,-1.19158 25.861855,25.861855 0 0 1 13.23986,12.62199 38.43972,38.43972 0 0 1 3.97196,11.51868 52.297437,52.297437 0 0 1 0.26479,6.66406 29.701414,29.701414 0 0 1 -2.03011,10.19469 29.127687,29.127687 0 0 1 -5.20767,8.82657 24.405471,24.405471 0 0 1 -5.91381,5.20768 z"
       id="path889"
       style="stroke-width:4.41329" />
    <path
       class="cls-1"
       d="m 565.89514,570.98666 -0.83853,-1.05918 c 0,-0.2648 -0.48546,-0.61786 -0.83852,-1.14746 a 12.66613,12.66613 0 0 0 0.83852,-1.41225 13.725319,13.725319 0 0 1 3.83956,-4.41329 12.533732,12.533732 0 0 1 10.19469,-2.4273 16.638088,16.638088 0 0 1 10.0623,6.88472 17.123549,17.123549 0 0 1 3.88369,12.93093 17.653143,17.653143 0 0 1 -7.59085,11.60694 14.122515,14.122515 0 0 1 -6.22274,2.8245 16.06436,16.06436 0 0 1 -6.75233,-0.39719 22.551891,22.551891 0 0 1 -6.26686,-2.55971 30.186875,30.186875 0 0 1 -7.98805,-7.41432 34.820825,34.820825 0 0 1 -5.03114,-9.44443 27.715435,27.715435 0 0 1 -1.76532,-10.90082 32.349385,32.349385 0 0 1 2.07425,-10.37122 43.868061,43.868061 0 0 1 3.75129,-7.85565 33.099644,33.099644 0 0 1 6.39926,-7.85564 1.3239858,1.3239858 0 0 1 1.05919,-0.22067 1.8535801,1.8535801 0 0 1 1.05919,0.79439 5.4724745,5.4724745 0 0 1 0.70613,1.27986 22.066429,22.066429 0 0 1 -2.03012,2.6921 24.184806,24.184806 0 0 0 -4.67808,9.09137 22.419492,22.419492 0 0 0 -0.83852,8.82657 30.628204,30.628204 0 0 0 3.26583,10.28296 62.403862,62.403862 0 0 0 5.9138,9.48856 52.518102,52.518102 0 0 0 6.84059,7.67912 9.7974946,9.7974946 0 0 0 5.60488,2.8245 5.604873,5.604873 0 0 0 3.66303,-1.41225 4.7222159,4.7222159 0 0 0 1.54465,-1.63292 7.7232502,7.7232502 0 0 0 0.83852,-3.17756 11.298012,11.298012 0 0 0 -1.36812,-4.98701 33.982301,33.982301 0 0 0 -3.04517,-4.85462 18.315136,18.315136 0 0 0 -7.94391,-6.97299 6.3551316,6.3551316 0 0 0 -5.86967,0.88266 13.239858,13.239858 0 0 0 -2.47144,2.4273 z"
       id="path891"
       style="stroke-width:4.41329" />
  </g>
</svg>
